# xmcd
#
# Track frame offsets:
#	150
#	17478
#	32608
#	46690
#	61450
#	77548
#	92358
#	106103
#	120228
#	134968
#	150455
#	163795
#	178583
#	193518
#	208235
#	224845
#	240043
#	254698
#	267585
#	296528
#
# Disc length: 4147 seconds
#
# Revision: 0
# Processed by: cddbd v1.5.2PL0 Copyright (c) Steve Scherf et al.
# Submitted via: EasyCDDAExtractor 16.0.6.1
#
DISCID=14103114
DTITLE=Ξυλούρης Νίκος - Ο αρχάγγελος της Κρήτης-Ν. Ξυλούρης
DYEAR=1990
DGENRE=Κρητική
TTITLE0=Ξυλούρης Νίκος - Όσο βαρούν τα σίδερα [παραδ., διασκ. Ν. και Γιάννη Ξυ
TTITLE0=λούρη]
TTITLE1=Ξυλούρης Νίκος - Όντε θα δεις ντελικανή [κοντυλιές, Ν. Ξυλούρη]
TTITLE2=Ξυλούρης Νίκος - Εγώ είμαι του μπαξέ πουλί [συρτό, Ν. και Γιάννη Ξυλού
TTITLE2=ρη]
TTITLE3=Ξυλούρης Νίκος - Κρύψε το μυστικό σου [συρτό, Ν. Ξυλούρη]
TTITLE4=Ξυλούρης Νίκος - Ζαμάνια τό 'χα να σε δω [συρτό, Ν. Ξυλούρη]
TTITLE5=Ξυλούρης Νίκος - Σύννεφα φέρετε βροχή [συρτό, Ν. Ξυλούρη]
TTITLE6=Ξυλούρης Νίκος - Όλα σου είναι όμορφα [συρτό, Ν. Ξυλούρη]
TTITLE7=Ξυλούρης Νίκος - Η κακόμοιρη μάννα μου [συρτό, Ν. Ξυλούρη]
TTITLE8=Ξυλούρης Νίκος - Στο ρίζωμα του χαρακιού [συρτό, Ν. Ξυλούρη]
TTITLE9=Ξυλούρης Νίκος - Ήρθες αργά, δεν πρόλαβες [συρτό, Ν. Ξυλούρη]
TTITLE10=Ξυλούρης Νίκος - Ίντά 'χετε γυρού γυρού [ριζίτικο, Ν. και Γιάννη Ξυλο
TTITLE10=ύρη]
TTITLE11=Ξυλούρης Νίκος - Ζήσω, πεθάνω στη ζωή [συρτό αργό, Ν. Ξυλούρη]
TTITLE12=Ξυλούρης Νίκος - Μιά πέρδικα συχνοτσιμπά [κοντυλιές, Ν. και Γιάννη Ξυ
TTITLE12=λούρη]
TTITLE13=Ξυλούρης Νίκος - Όταν κάνεις στην ξενητειά [συρτό, Ν. Ξυλούρη]
TTITLE14=Ξυλούρης Νίκος - Σαν έρθουν μάννα οι φίλοι μου [ριζίτικο, Ν. και Γιάν
TTITLE14=νη Ξυλούρη]
TTITLE15=Ξυλούρης Νίκος - Μην περιμένεις τον καιρό [συρτό, Ν. και Γιάννη Ξυλού
TTITLE15=ρη]
TTITLE16=Ξυλούρης Νίκος - Πώς είσαι αγάπη μου μακρυά [συρτό, Μ. Μανουρά]
TTITLE17=Ξυλούρης Νίκος - Απόψε μουσαφίρης σου [σούστα, Ν. Ξυλούρη]
TTITLE18=Ξυλούρης Νίκος-χορωδία - Εις του Βαρσάμου το νερό [ριζίτικο, διασκ. Ν
TTITLE18=και Γιάννη Ξυλούρη]
TTITLE19=Άνευ ερμηνευτού - Μαλεβιζιώτικος καστρινός χορός [οργανικό, Ν. Ξυλούρ
TTITLE19=η]
EXTD=
EXTT0=
EXTT1=
EXTT2=
EXTT3=
EXTT4=
EXTT5=
EXTT6=
EXTT7=
EXTT8=
EXTT9=
EXTT10=
EXTT11=
EXTT12=
EXTT13=
EXTT14=
EXTT15=
EXTT16=
EXTT17=
EXTT18=
EXTT19=
PLAYORDER=
